<svg width="47" height="47" viewBox="0 0 47 47" fill="none" xmlns="http://www.w3.org/2000/svg">
<rect width="47" height="47" fill="#1E1E1E"/>
<g id="Frame 1">
<rect width="433" height="200" transform="translate(-232 -37)" fill="blank"/>
<path id="Arrow 1" d="M42.9003 45C42.9003 46.1046 43.7958 47 44.9003 47C46.0049 47 46.9003 46.1046 46.9003 45L42.9003 45ZM44.9003 42L42.9003 42L44.9003 42ZM17.9003 15L17.9003 13H17.9003L17.9003 15ZM0.585786 13.5858C-0.195263 14.3668 -0.195263 15.6331 0.585786 16.4142L13.3137 29.1421C14.0948 29.9232 15.3611 29.9232 16.1421 29.1421C16.9232 28.3611 16.9232 27.0947 16.1421 26.3137L4.82843 15L16.1421 3.68627C16.9232 2.90522 16.9232 1.63889 16.1421 0.857846C15.3611 0.076797 14.0948 0.076797 13.3137 0.857846L0.585786 13.5858ZM46.9003 45L46.9003 42L42.9003 42L42.9003 45L46.9003 45ZM17.9003 13L2 13L2 17L17.9003 17L17.9003 13ZM46.9003 42C46.9003 25.9837 33.9166 13 17.9003 13L17.9003 17C31.7074 17 42.9003 28.1929 42.9003 42L46.9003 42Z" fill="black"/>
</g>
</svg>
