<!DOCTYPE svg PUBLIC "-//W3C//DTD SVG 1.1//EN" "http://www.w3.org/Graphics/SVG/1.1/DTD/svg11.dtd">
<!-- Uploaded to: SVG Repo, www.svgrepo.com, Transformed by: SVG Repo Mixer Tools -->
<svg fill="#ffffff" height="800px" width="800px" version="1.1" id="Layer_1" xmlns="http://www.w3.org/2000/svg" xmlns:xlink="http://www.w3.org/1999/xlink" viewBox="-39.27 -39.27 471.19 471.19" xml:space="preserve" stroke="#ffffff" transform="rotate(-45)matrix(1, 0, 0, 1, 0, 0)" stroke-width="0.00392652">
<g id="SVGRepo_bgCarrier" stroke-width="0"/>
<g id="SVGRepo_tracerCarrier" stroke-linecap="round" stroke-linejoin="round" stroke="#CCCCCC" stroke-width="10.994256"> <path d="M334.361,186.385C297.184,96.631,205.038,45.965,112.991,57.174l35.961-35.961L127.738,0L42.132,85.606l85.607,85.606 L148.952,150L90.94,91.987c86.954-23.72,180.327,20.467,215.705,105.878c24.497,59.141,16.531,125.338-21.308,177.078l24.215,17.709 c21.081-28.825,34.648-62.773,39.234-98.174C353.516,257.965,348.528,220.587,334.361,186.385z"/> </g>
<g id="SVGRepo_iconCarrier"> <path d="M334.361,186.385C297.184,96.631,205.038,45.965,112.991,57.174l35.961-35.961L127.738,0L42.132,85.606l85.607,85.606 L148.952,150L90.94,91.987c86.954-23.72,180.327,20.467,215.705,105.878c24.497,59.141,16.531,125.338-21.308,177.078l24.215,17.709 c21.081-28.825,34.648-62.773,39.234-98.174C353.516,257.965,348.528,220.587,334.361,186.385z"/> </g>
</svg>